# xmcd
#
# Track frame offsets:
#	150
#	14092
#	25609
#	35634
#	47929
#	59546
#	71587
#	83648
#	98904
#	109155
#	120173
#	131118
#	140141
#	151470
#	166434
#	184110
#	199367
#	210224
#	221415
#	230491
#	241673
#	253081
#
# Disc length: 3509 seconds
# Revision: 0
# Processed by: cddbd v1.5.2PL0 Copyright (c) Steve Scherf et al.
# Submitted via: dBpowerAMP V12.0
#
DISCID=3d0db316
DTITLE=Various Artist - Blue Beat - The Singles - Volume 4
DYEAR=2013
DGENRE=R&B
TTITLE0=The Mellow Larks With Clue J and His Blues Busters - No More Wedding
TTITLE1=The Mellow Larks With Clue J and His Blues Busters - Lite Of My Life
TTITLE2=Aubrey Adams and His Dudroppers - Do Wu Wap
TTITLE3=Chuck and Dobby With Aubrey Adams and His Dudroppers - I Love My Teacher
TTITLE4=Laurel Aitken and The Blue Beats - Bar Tender
TTITLE5=Laurel Aitken and The Blue Beats - Mash Potato Boogie
TTITLE6=Lascelles Permins With Clue J and His Blues Blasters - Creation
TTITLE7=Lascelles Permins With Clue J and His Blues Blasters - Lonely Robin
TTITLE8=The Charmers With Hersan and His City Slickers - Lonely Boy
TTITLE9=The Charmers With Hersan and His City Slickers - I'm Going Back
TTITLE10=Owen Gray and Hersan and His City Slickers - Sinners Weep And Mourn
TTITLE11=Owen Gray and Hersan and His City Slickers - Get Down
TTITLE12=Bobby Kingdom and The Blue Beats - Honey Please
TTITLE13=Bobby Kingdom and The Blue Beats - That's My Girl
TTITLE14=Girl Satchmo and The Swinging Mashers - Satchmo's Mash Potato
TTITLE15=Girl Satchmo and The Swinging Mashers - Darling
TTITLE16=Errol Dixon and The Back Beats - Mama Shut Your Door
TTITLE17=Errol Dixon and The Back Beats - Too Much Whiskey
TTITLE18=Jimmy Sinclair And Trenton Spence Orchestra - Verona
TTITLE19=Jimmy Sinclair And Trenton Spence Orchestra - To Prove My Love
TTITLE20=Martin and Derrick and Sir Cavaliers Combo - Times Are Going
TTITLE21=Martin and Derrick and Sir Cavaliers Combo - I Love You Baby
EXTD=
EXTT0=
EXTT1=
EXTT2=
EXTT3=
EXTT4=
EXTT5=
EXTT6=
EXTT7=
EXTT8=
EXTT9=
EXTT10=
EXTT11=
EXTT12=
EXTT13=
EXTT14=
EXTT15=
EXTT16=
EXTT17=
EXTT18=
EXTT19=
EXTT20=
EXTT21=
PLAYORDER=
